<svg width="85" height="78" viewBox="0 0 85 78" fill="none" xmlns="http://www.w3.org/2000/svg">
<path d="M66.256 21.4299L66.3309 21.803L66.7105 21.8302C76.7676 22.5521 84.5 30.7578 84.5 40.7293C84.5 51.195 75.9866 59.7084 65.5209 59.7082H47.8125C47.1111 59.7082 46.5416 59.1387 46.5416 58.4373C46.5416 57.736 47.1111 57.1664 47.8125 57.1664H65.5209C74.5839 57.1664 81.9584 49.792 81.9584 40.7289C81.9584 31.6561 74.4636 24.1656 65.4823 24.2914C65.1499 24.2907 64.784 24.1715 64.4924 23.9644C64.1997 23.7567 64.0244 23.4932 63.9866 23.2266L63.9865 23.2263C62.3471 11.7175 52.3505 3.04145 40.7293 3.04145C27.7597 3.04145 17.2084 13.5928 17.2084 26.5623C17.2084 27.5837 17.296 28.6636 17.4826 29.9559L17.4827 29.9561C17.5358 30.3229 17.4249 30.6958 17.1791 30.9757C16.9673 31.2097 16.5941 31.3266 16.1581 31.4051C16.1545 31.4049 16.1506 31.4046 16.1465 31.4043C16.1197 31.4025 16.0876 31.3998 16.0545 31.3966C15.9825 31.3897 15.9267 31.3824 15.9098 31.3794L15.8654 31.3713L15.8204 31.3713C8.82275 31.375 3.04161 37.1621 3.04161 44.2707C3.04161 51.3824 8.826 57.1666 15.9375 57.1666H33.6459C34.3472 57.1666 34.9168 57.7361 34.9168 58.4375C34.9168 59.1389 34.3472 59.7084 33.6459 59.7084H15.9375C7.42677 59.7084 0.5 52.7816 0.5 44.2709C0.5 36.3131 6.55499 29.7424 14.2973 28.9191L14.7827 28.8675L14.7428 28.381C14.6908 27.7461 14.6666 27.147 14.6666 26.5625C14.6666 12.1903 26.3569 0.5 40.7291 0.5C53.1152 0.5 63.841 9.40037 66.256 21.4299ZM41.6257 39.8326L41.6917 39.8985C41.8861 40.1248 42.0001 40.4181 42.0001 40.7293V43.8008L39.8288 41.6295C39.3379 41.1386 39.3335 40.3424 39.8156 39.846L39.8313 39.8303C39.8314 39.8301 39.8316 39.83 39.8318 39.8298C39.8619 39.7999 39.8931 39.7718 39.9253 39.7454C40.4238 39.3392 41.1613 39.3682 41.6257 39.8326ZM43.0001 44.8008V41.207L48.7091 46.916C49.2044 47.4113 49.2045 48.2173 48.7091 48.7129C48.7091 48.7129 48.7091 48.7129 48.7091 48.7129L43.0001 44.8008ZM42.0001 45.215V76.1459C42.0001 76.8473 41.4305 77.4168 40.7292 77.4168C40.0278 77.4168 39.4583 76.8473 39.4583 76.1459V45.0042V43.7971L38.6047 44.6506L34.546 48.7094C34.0506 49.2048 33.2444 49.2048 32.7491 48.7094C32.2537 48.214 32.2537 47.4078 32.7491 46.9125L38.4985 41.1631C38.5813 41.5932 38.789 42.0039 39.1217 42.3366L42.0001 45.215Z" fill="#0A588B" stroke="#0A588B"/>
</svg>
