<svg width="20" height="17" viewBox="0 0 20 17" fill="none" xmlns="http://www.w3.org/2000/svg">
<path d="M4.39808 8.17392L4.98029 7.89968L4.57065 7.40333C4.09829 6.83097 3.83333 6.15775 3.83333 5.44445V4.08333C3.83333 2.19742 5.75255 0.5 8.33335 0.5C10.9142 0.5 12.8334 2.19742 12.8334 4.08333V5.44449C12.8334 7.3304 10.9142 9.02782 8.33335 9.02782C7.31789 9.02782 6.38782 8.75381 5.63726 8.30349L5.42339 8.17517L5.19223 8.26884C2.85798 9.2148 1.16669 11.2197 1.16669 13.6112V14.2917C1.16669 15.0324 1.86294 15.4722 2.50001 15.4722H10C10.1223 15.4722 10.2171 15.513 10.2731 15.5588C10.3282 15.6038 10.3334 15.6397 10.3334 15.6528C10.3334 15.6659 10.3282 15.7018 10.2731 15.7468C10.2171 15.7926 10.1223 15.8333 10 15.8333H2.50001C1.2984 15.8333 0.5 15.0512 0.5 14.2917V13.6111C0.5 11.3339 2.02938 9.28963 4.39808 8.17392ZM15.3334 11.5695V12.0695H15.8334H19.1668C19.289 12.0695 19.3837 12.1102 19.4398 12.156C19.4948 12.201 19.5 12.2368 19.5 12.25C19.5 12.2631 19.4948 12.299 19.4398 12.344C19.3837 12.3898 19.2889 12.4305 19.1667 12.4305H15.8333H15.3333V12.9305V15.6528C15.3333 15.6659 15.3281 15.7018 15.2731 15.7467C15.217 15.7926 15.1222 15.8333 15 15.8333C14.8778 15.8333 14.783 15.7926 14.7269 15.7467C14.6719 15.7018 14.6667 15.6659 14.6667 15.6528V12.9305V12.4305H14.1667H10.8334C10.7111 12.4305 10.6163 12.3898 10.5603 12.344C10.5052 12.299 10.5 12.2631 10.5 12.25C10.5 12.2369 10.5052 12.201 10.5603 12.156C10.6163 12.1102 10.7112 12.0695 10.8334 12.0695H14.1668H14.6668V11.5695V8.84724C14.6668 8.83411 14.672 8.79824 14.727 8.75326C14.7831 8.70745 14.8779 8.6667 15.0001 8.6667C15.1223 8.6667 15.2171 8.70745 15.2732 8.75326C15.3282 8.79824 15.3334 8.83411 15.3334 8.84724V11.5695ZM8.33339 8.66667C10.3484 8.66667 12.1667 7.31179 12.1667 5.44445L12.1667 4.08333C12.1667 2.21599 10.3484 0.861122 8.33335 0.861122C6.31832 0.861122 4.50002 2.21599 4.50002 4.08333V5.44445C4.50002 7.3118 6.31836 8.66667 8.33339 8.66667Z" fill="white" stroke="white"/>
</svg>
